<svg width="20" height="14" viewBox="0 0 20 14" fill="none" xmlns="http://www.w3.org/2000/svg">
<path d="M17.3333 0.333328H2.66665C1.65831 0.333328 0.84248 1.08333 0.84248 1.99999L0.833313 12C0.833313 12.9167 1.65831 13.6667 2.66665 13.6667H17.3333C18.3416 13.6667 19.1666 12.9167 19.1666 12V1.99999C19.1666 1.08333 18.3416 0.333328 17.3333 0.333328ZM16.9666 3.87499L10.4858 7.55833C10.1925 7.72499 9.80748 7.72499 9.51415 7.55833L3.03331 3.87499C2.9414 3.82809 2.86091 3.76471 2.79671 3.68871C2.73252 3.6127 2.68595 3.52564 2.65984 3.4328C2.63373 3.33996 2.62861 3.24327 2.64479 3.14858C2.66097 3.05389 2.69812 2.96317 2.75399 2.88191C2.80985 2.80065 2.88328 2.73054 2.96981 2.67582C3.05635 2.62111 3.15419 2.58292 3.25743 2.56358C3.36067 2.54423 3.46716 2.54413 3.57044 2.56328C3.67372 2.58244 3.77165 2.62044 3.85831 2.67499L9.99998 6.16666L16.1416 2.67499C16.2283 2.62044 16.3262 2.58244 16.4295 2.56328C16.5328 2.54413 16.6393 2.54423 16.7425 2.56358C16.8458 2.58292 16.9436 2.62111 17.0301 2.67582C17.1167 2.73054 17.1901 2.80065 17.246 2.88191C17.3018 2.96317 17.339 3.05389 17.3552 3.14858C17.3714 3.24327 17.3662 3.33996 17.3401 3.4328C17.314 3.52564 17.2674 3.6127 17.2032 3.68871C17.1391 3.76471 17.0586 3.82809 16.9666 3.87499Z" fill="#EFEFEF"/>
</svg>
