<svg width="376" height="110" viewBox="0 0 376 110" fill="none" xmlns="http://www.w3.org/2000/svg">
<path d="M103.094 19.2V43H106.732V33.072H108.806L115.81 43H120.366L112.886 32.8C115.742 32.12 118.53 30.08 118.53 26.102C118.53 21.138 113.974 19.2 110.268 19.2H103.094ZM106.732 22.396H110.098C112.818 22.396 114.654 23.926 114.654 26.204C114.654 28.788 112.444 29.876 109.452 29.876H106.732V22.396ZM133.754 25.388C128.654 25.388 124.914 29.366 124.914 34.398C124.914 39.43 128.654 43.408 133.754 43.408C138.82 43.408 142.594 39.43 142.594 34.398C142.594 29.366 138.82 25.388 133.754 25.388ZM139.024 34.398C139.024 37.594 136.814 40.246 133.754 40.246C130.694 40.246 128.484 37.594 128.484 34.398C128.484 31.168 130.694 28.55 133.754 28.55C136.814 28.55 139.024 31.168 139.024 34.398ZM147.511 25.796L153.767 42.354L151.047 49.562L154.141 50.786L163.831 25.796H160.023L155.671 38.172H155.603L151.387 25.796H147.511ZM183.661 43V32.562C183.661 28.108 181.723 25.388 176.793 25.388C174.379 25.388 171.727 26.136 169.857 27.02L170.843 29.842C172.271 29.06 174.277 28.312 176.249 28.312C179.003 28.312 180.159 29.774 180.159 32.29V32.8C178.765 32.528 177.677 32.426 176.793 32.426C173.053 32.426 169.177 33.786 169.177 38.104C169.177 41.776 172.101 43.408 175.297 43.408C177.405 43.408 179.003 42.796 180.329 41.266L180.431 43H183.661ZM180.159 38.716C178.867 39.804 177.473 40.62 175.807 40.62C174.107 40.62 172.611 39.872 172.611 37.934C172.611 35.486 175.229 34.942 177.235 34.942C178.085 34.942 178.969 35.01 180.159 35.248V38.716ZM195.824 17.5H192.322V43H195.824V17.5Z" fill="white"/>
<path d="M5.39 65V19.71H36.12C39.62 19.71 42.6533 20.2 45.22 21.18C47.8333 22.1133 49.8633 23.6067 51.31 25.66C52.7567 27.6667 53.48 30.2567 53.48 33.43C53.48 35.5767 53.1067 37.3967 52.36 38.89C51.6133 40.3833 50.5633 41.5967 49.21 42.53C47.9033 43.4633 46.3867 44.1867 44.66 44.7C42.9333 45.1667 41.09 45.47 39.13 45.61L38.15 45.05C41.4167 45.0967 44.1 45.3767 46.2 45.89C48.3 46.3567 49.8633 47.2433 50.89 48.55C51.9633 49.81 52.5 51.7 52.5 54.22V65H43.19V54.85C43.19 53.1233 42.8867 51.7933 42.28 50.86C41.6733 49.88 40.5767 49.2033 38.99 48.83C37.45 48.4567 35.21 48.27 32.27 48.27H14.7V65H5.39ZM14.7 40.99H36.12C38.7333 40.99 40.7167 40.36 42.07 39.1C43.47 37.84 44.17 36.1367 44.17 33.99C44.17 31.9367 43.47 30.3733 42.07 29.3C40.7167 28.2267 38.7333 27.69 36.12 27.69H14.7V40.99Z" fill="white"/>
<path d="M26.39 86V40.71H57.12C60.62 40.71 63.6533 41.2 66.22 42.18C68.8333 43.1133 70.8633 44.6067 72.31 46.66C73.7567 48.6667 74.48 51.2567 74.48 54.43C74.48 56.5767 74.1067 58.3967 73.36 59.89C72.6133 61.3833 71.5633 62.5967 70.21 63.53C68.9033 64.4633 67.3867 65.1867 65.66 65.7C63.9333 66.1667 62.09 66.47 60.13 66.61L59.15 66.05C62.4167 66.0967 65.1 66.3767 67.2 66.89C69.3 67.3567 70.8633 68.2433 71.89 69.55C72.9633 70.81 73.5 72.7 73.5 75.22V86H64.19V75.85C64.19 74.1233 63.8867 72.7933 63.28 71.86C62.6733 70.88 61.5767 70.2033 59.99 69.83C58.45 69.4567 56.21 69.27 53.27 69.27H35.7V86H26.39ZM35.7 61.99H57.12C59.7333 61.99 61.7167 61.36 63.07 60.1C64.47 58.84 65.17 57.1367 65.17 54.99C65.17 52.9367 64.47 51.3733 63.07 50.3C61.7167 49.2267 59.7333 48.69 57.12 48.69H35.7V61.99Z" fill="#039BFF"/>
<path d="M111.04 59.56L112.6 57.712C111.04 56.512 109.36 55.912 107.296 55.912C104.56 55.912 102.16 57.4 102.16 60.568C102.16 63.328 104.56 64.456 106.84 65.272C108.712 65.92 110.464 66.544 110.464 68.296C110.464 70.216 108.856 71.008 107.224 71.008C105.52 71.008 104.344 70.504 102.832 68.992L101.032 70.696C102.832 72.472 104.704 73.288 107.2 73.288C109.84 73.288 113.2 71.8 113.2 68.056C113.2 64.768 110.392 63.688 108.016 62.872C106.288 62.272 104.728 61.768 104.728 60.352C104.728 58.96 105.904 58.192 107.536 58.192C108.856 58.192 110.224 58.816 111.04 59.56ZM124.897 62.992V60.856H121.561V58H119.209L119.089 60.856H117.505V62.992H119.089V68.776C119.089 69.664 119.185 70.504 119.449 71.176C119.929 72.424 121.033 73.24 122.785 73.24C123.625 73.24 124.561 73.024 125.209 72.664L124.489 70.72C124.105 70.912 123.649 71.056 123.121 71.056C122.041 71.056 121.657 70.384 121.585 69.232C121.561 68.872 121.561 68.584 121.561 68.272V62.992H124.897ZM139.381 73V65.632C139.381 62.488 138.013 60.568 134.533 60.568C132.829 60.568 130.957 61.096 129.637 61.72L130.333 63.712C131.341 63.16 132.757 62.632 134.149 62.632C136.093 62.632 136.909 63.664 136.909 65.44V65.8C135.925 65.608 135.157 65.536 134.533 65.536C131.893 65.536 129.157 66.496 129.157 69.544C129.157 72.136 131.221 73.288 133.477 73.288C134.965 73.288 136.093 72.856 137.029 71.776L137.101 73H139.381ZM136.909 69.976C135.997 70.744 135.013 71.32 133.837 71.32C132.637 71.32 131.581 70.792 131.581 69.424C131.581 67.696 133.429 67.312 134.845 67.312C135.445 67.312 136.069 67.36 136.909 67.528V69.976ZM147.967 73V60.856H145.495V73H147.967ZM147.967 58.648V56.08H145.495V58.648H147.967ZM154.2 60.856V73H156.672V64.96C157.464 63.688 158.76 62.8 160.056 62.8C161.04 62.8 161.688 63.16 162.048 63.736C162.576 64.576 162.624 65.8 162.624 66.904V73H165.096V66.688C165.096 64.864 164.856 63.256 164.016 62.104C163.296 61.144 162.168 60.568 160.56 60.568C159 60.568 157.536 61.36 156.624 62.776L156.552 60.856H154.2ZM173.697 55H171.225V73H173.697V55ZM181.465 67.552H190.537C190.609 67.192 190.657 66.64 190.657 66.208C190.657 62.968 188.281 60.568 185.017 60.568C181.609 60.568 178.969 63.328 178.969 66.952C178.969 70.528 181.201 73.288 185.017 73.288C187.513 73.288 189.145 72.376 190.393 70.408L188.665 69.28C187.921 70.6 186.745 71.2 185.137 71.2C182.977 71.2 181.633 69.544 181.465 67.552ZM188.089 65.656H181.609C182.041 63.952 183.193 62.632 185.065 62.632C186.769 62.632 187.993 64 188.089 65.656ZM203.483 61.96C202.475 61.048 201.083 60.568 199.643 60.568C197.555 60.568 195.611 61.744 195.611 64.216C195.611 66.376 197.411 67.096 198.995 67.744C200.195 68.224 201.299 68.656 201.299 69.592C201.299 70.72 200.339 71.248 199.283 71.248C198.251 71.248 197.411 70.792 196.571 69.928L194.939 71.344C195.995 72.616 197.579 73.288 199.307 73.288C201.611 73.288 203.771 72.16 203.771 69.448C203.771 67.288 201.803 66.424 200.219 65.8C199.091 65.344 197.987 64.912 197.987 64.024C197.987 63.16 198.659 62.584 199.643 62.584C200.507 62.584 201.491 63.016 202.043 63.52L203.483 61.96ZM216.875 61.96C215.867 61.048 214.475 60.568 213.035 60.568C210.947 60.568 209.003 61.744 209.003 64.216C209.003 66.376 210.803 67.096 212.387 67.744C213.587 68.224 214.691 68.656 214.691 69.592C214.691 70.72 213.731 71.248 212.675 71.248C211.643 71.248 210.803 70.792 209.963 69.928L208.331 71.344C209.387 72.616 210.971 73.288 212.699 73.288C215.003 73.288 217.163 72.16 217.163 69.448C217.163 67.288 215.195 66.424 213.611 65.8C212.483 65.344 211.379 64.912 211.379 64.024C211.379 63.16 212.051 62.584 213.035 62.584C213.899 62.584 214.883 63.016 215.435 63.52L216.875 61.96ZM240.251 59.56L241.811 57.712C240.251 56.512 238.571 55.912 236.507 55.912C233.771 55.912 231.371 57.4 231.371 60.568C231.371 63.328 233.771 64.456 236.051 65.272C237.923 65.92 239.675 66.544 239.675 68.296C239.675 70.216 238.067 71.008 236.435 71.008C234.731 71.008 233.555 70.504 232.043 68.992L230.243 70.696C232.043 72.472 233.915 73.288 236.411 73.288C239.051 73.288 242.411 71.8 242.411 68.056C242.411 64.768 239.603 63.688 237.227 62.872C235.499 62.272 233.939 61.768 233.939 60.352C233.939 58.96 235.115 58.192 236.747 58.192C238.067 58.192 239.435 58.816 240.251 59.56ZM254.108 62.992V60.856H250.772V58H248.42L248.3 60.856H246.716V62.992H248.3V68.776C248.3 69.664 248.396 70.504 248.66 71.176C249.14 72.424 250.244 73.24 251.996 73.24C252.836 73.24 253.772 73.024 254.42 72.664L253.7 70.72C253.316 70.912 252.86 71.056 252.332 71.056C251.252 71.056 250.868 70.384 250.796 69.232C250.772 68.872 250.772 68.584 250.772 68.272V62.992H254.108ZM260.576 67.552H269.648C269.72 67.192 269.768 66.64 269.768 66.208C269.768 62.968 267.392 60.568 264.128 60.568C260.72 60.568 258.08 63.328 258.08 66.952C258.08 70.528 260.312 73.288 264.128 73.288C266.624 73.288 268.256 72.376 269.504 70.408L267.776 69.28C267.032 70.6 265.856 71.2 264.248 71.2C262.088 71.2 260.744 69.544 260.576 67.552ZM267.2 65.656H260.72C261.152 63.952 262.304 62.632 264.176 62.632C265.88 62.632 267.104 64 267.2 65.656ZM276.593 67.552H285.665C285.737 67.192 285.785 66.64 285.785 66.208C285.785 62.968 283.409 60.568 280.145 60.568C276.737 60.568 274.097 63.328 274.097 66.952C274.097 70.528 276.329 73.288 280.145 73.288C282.641 73.288 284.273 72.376 285.521 70.408L283.793 69.28C283.049 70.6 281.873 71.2 280.265 71.2C278.105 71.2 276.761 69.544 276.593 67.552ZM283.217 65.656H276.737C277.169 63.952 278.321 62.632 280.193 62.632C281.897 62.632 283.121 64 283.217 65.656ZM293.547 55H291.075V73H293.547V55ZM104.104 91.6C104.104 87.904 106.744 85.192 110.392 85.192C111.64 85.192 112.816 85.624 113.824 86.272L115.048 84.304C113.656 83.416 112.096 82.912 110.392 82.912C105.424 82.912 101.368 86.656 101.368 91.6C101.368 96.856 105.328 100.288 110.344 100.288C112.216 100.288 113.968 99.712 115.456 98.656L114.064 96.76C112.936 97.576 111.688 98.008 110.392 98.008C106.648 98.008 104.104 95.512 104.104 91.6ZM125.42 87.568C121.82 87.568 119.18 90.376 119.18 93.928C119.18 97.48 121.82 100.288 125.42 100.288C128.996 100.288 131.66 97.48 131.66 93.928C131.66 90.376 128.996 87.568 125.42 87.568ZM129.14 93.928C129.14 96.184 127.58 98.056 125.42 98.056C123.26 98.056 121.7 96.184 121.7 93.928C121.7 91.648 123.26 89.8 125.42 89.8C127.58 89.8 129.14 91.648 129.14 93.928ZM136.931 87.856V100H139.403V91.96C140.195 90.688 141.491 89.8 142.787 89.8C143.771 89.8 144.419 90.16 144.779 90.736C145.307 91.576 145.355 92.8 145.355 93.904V100H147.827V93.688C147.827 91.864 147.587 90.256 146.747 89.104C146.027 88.144 144.899 87.568 143.291 87.568C141.731 87.568 140.267 88.36 139.355 89.776L139.283 87.856H136.931ZM159.908 89.992V87.856H156.572V85H154.22L154.1 87.856H152.516V89.992H154.1V95.776C154.1 96.664 154.196 97.504 154.46 98.176C154.94 99.424 156.044 100.24 157.796 100.24C158.636 100.24 159.572 100.024 160.22 99.664L159.5 97.72C159.116 97.912 158.66 98.056 158.132 98.056C157.052 98.056 156.668 97.384 156.596 96.232C156.572 95.872 156.572 95.584 156.572 95.272V89.992H159.908ZM174.392 100V92.632C174.392 89.488 173.024 87.568 169.544 87.568C167.84 87.568 165.968 88.096 164.648 88.72L165.344 90.712C166.352 90.16 167.768 89.632 169.16 89.632C171.104 89.632 171.92 90.664 171.92 92.44V92.8C170.936 92.608 170.168 92.536 169.544 92.536C166.904 92.536 164.168 93.496 164.168 96.544C164.168 99.136 166.232 100.288 168.488 100.288C169.976 100.288 171.104 99.856 172.04 98.776L172.112 100H174.392ZM171.92 96.976C171.008 97.744 170.024 98.32 168.848 98.32C167.648 98.32 166.592 97.792 166.592 96.424C166.592 94.696 168.44 94.312 169.856 94.312C170.456 94.312 171.08 94.36 171.92 94.528V96.976ZM182.978 100V87.856H180.506V100H182.978ZM182.978 85.648V83.08H180.506V85.648H182.978ZM189.211 87.856V100H191.683V91.96C192.475 90.688 193.771 89.8 195.067 89.8C196.051 89.8 196.699 90.16 197.059 90.736C197.587 91.576 197.635 92.8 197.635 93.904V100H200.107V93.688C200.107 91.864 199.867 90.256 199.027 89.104C198.307 88.144 197.179 87.568 195.571 87.568C194.011 87.568 192.547 88.36 191.635 89.776L191.563 87.856H189.211ZM207.772 94.552H216.844C216.916 94.192 216.964 93.64 216.964 93.208C216.964 89.968 214.588 87.568 211.324 87.568C207.916 87.568 205.276 90.328 205.276 93.952C205.276 97.528 207.508 100.288 211.324 100.288C213.82 100.288 215.452 99.376 216.7 97.408L214.972 96.28C214.228 97.6 213.052 98.2 211.444 98.2C209.284 98.2 207.94 96.544 207.772 94.552ZM214.396 92.656H207.916C208.348 90.952 209.5 89.632 211.372 89.632C213.076 89.632 214.3 91 214.396 92.656ZM224.605 87.856H222.253V100H224.725V91.84C225.397 90.664 226.309 89.968 227.485 89.968C227.941 89.968 228.277 90.04 228.637 90.232L229.141 87.736C228.685 87.616 228.277 87.568 227.749 87.568C226.477 87.568 225.397 88.48 224.677 89.752L224.605 87.856ZM240.861 88.96C239.853 88.048 238.461 87.568 237.021 87.568C234.933 87.568 232.989 88.744 232.989 91.216C232.989 93.376 234.789 94.096 236.373 94.744C237.573 95.224 238.677 95.656 238.677 96.592C238.677 97.72 237.717 98.248 236.661 98.248C235.629 98.248 234.789 97.792 233.949 96.928L232.317 98.344C233.373 99.616 234.957 100.288 236.685 100.288C238.989 100.288 241.149 99.16 241.149 96.448C241.149 94.288 239.181 93.424 237.597 92.8C236.469 92.344 235.365 91.912 235.365 91.024C235.365 90.16 236.037 89.584 237.021 89.584C237.885 89.584 238.869 90.016 239.421 90.52L240.861 88.96Z" fill="white"/>
</svg>
