<svg width="44" height="55" viewBox="0 0 44 55" fill="#039BFF" xmlns="http://www.w3.org/2000/svg">
<path d="M3.08 37V11.12H20.64C22.64 11.12 24.3733 11.4 25.84 11.96C27.3333 12.4933 28.4933 13.3467 29.32 14.52C30.1467 15.6667 30.56 17.1467 30.56 18.96C30.56 20.1867 30.3467 21.2267 29.92 22.08C29.4933 22.9333 28.8933 23.6267 28.12 24.16C27.3733 24.6933 26.5067 25.1067 25.52 25.4C24.5333 25.6667 23.48 25.84 22.36 25.92L21.8 25.6C23.6667 25.6267 25.2 25.7867 26.4 26.08C27.6 26.3467 28.4933 26.8533 29.08 27.6C29.6933 28.32 30 29.4 30 30.84V37H24.68V31.2C24.68 30.2133 24.5067 29.4533 24.16 28.92C23.8133 28.36 23.1867 27.9733 22.28 27.76C21.4 27.5467 20.12 27.44 18.44 27.44H8.4V37H3.08ZM8.4 23.28H20.64C22.1333 23.28 23.2667 22.92 24.04 22.2C24.84 21.48 25.24 20.5067 25.24 19.28C25.24 18.1067 24.84 17.2133 24.04 16.6C23.2667 15.9867 22.1333 15.68 20.64 15.68H8.4V23.28Z" fill="#039BFF"/>
<path d="M12.08 49V23.12H29.64C31.64 23.12 33.3733 23.4 34.84 23.96C36.3333 24.4933 37.4933 25.3467 38.32 26.52C39.1467 27.6667 39.56 29.1467 39.56 30.96C39.56 32.1867 39.3467 33.2267 38.92 34.08C38.4933 34.9333 37.8933 35.6267 37.12 36.16C36.3733 36.6933 35.5067 37.1067 34.52 37.4C33.5333 37.6667 32.48 37.84 31.36 37.92L30.8 37.6C32.6667 37.6267 34.2 37.7867 35.4 38.08C36.6 38.3467 37.4933 38.8533 38.08 39.6C38.6933 40.32 39 41.4 39 42.84V49H33.68V43.2C33.68 42.2133 33.5067 41.4533 33.16 40.92C32.8133 40.36 32.1867 39.9733 31.28 39.76C30.4 39.5467 29.12 39.44 27.44 39.44H17.4V49H12.08ZM17.4 35.28H29.64C31.1333 35.28 32.2667 34.92 33.04 34.2C33.84 33.48 34.24 32.5067 34.24 31.28C34.24 30.1067 33.84 29.2133 33.04 28.6C32.2667 27.9867 31.1333 27.68 29.64 27.68H17.4V35.28Z" fill="#039BFF"/>
</svg>
