<svg width="19" height="20" viewBox="0 0 19 20" fill="none" xmlns="http://www.w3.org/2000/svg">
<path d="M1.6875 19.75C1.6875 19.75 0.125 19.75 0.125 18.125C0.125 16.5 1.6875 11.625 9.5 11.625C17.3125 11.625 18.875 16.5 18.875 18.125C18.875 19.75 17.3125 19.75 17.3125 19.75H1.6875ZM9.5 10C10.7432 10 11.9355 9.48639 12.8146 8.57215C13.6936 7.65791 14.1875 6.41793 14.1875 5.125C14.1875 3.83207 13.6936 2.59209 12.8146 1.67785C11.9355 0.763615 10.7432 0.25 9.5 0.25C8.2568 0.25 7.06451 0.763615 6.18544 1.67785C5.30636 2.59209 4.8125 3.83207 4.8125 5.125C4.8125 6.41793 5.30636 7.65791 6.18544 8.57215C7.06451 9.48639 8.2568 10 9.5 10Z" fill="#EFEFEF"/>
</svg>
