<svg width="15" height="19" viewBox="0 0 15 19" fill="none" xmlns="http://www.w3.org/2000/svg">
<path d="M5.71175 8.09699L7.25562 6.68249C7.67777 6.29497 7.97447 5.79014 8.10766 5.23279C8.24085 4.67544 8.20445 4.09101 8.00312 3.5545L7.34475 1.79643C7.09878 1.1401 6.61183 0.602229 5.98311 0.292409C5.35438 -0.0174109 4.6312 -0.0758731 3.96087 0.128933C1.49412 0.883621 -0.401941 3.17643 0.181684 5.89906C0.565496 7.69018 1.30006 9.93843 2.69156 12.3304C4.08593 14.7282 5.67868 16.4992 7.04431 17.7441C9.10568 19.62 12.0526 19.1514 13.9486 17.3832C14.4569 16.9094 14.7653 16.2595 14.8109 15.5661C14.8566 14.8727 14.6361 14.188 14.1944 13.6515L12.9869 12.1852C12.6227 11.7418 12.1342 11.4176 11.5842 11.2541C11.0342 11.0907 10.4478 11.0956 9.90062 11.2681L7.90537 11.8963C7.3901 11.3645 6.93856 10.7745 6.55987 10.1382C6.19436 9.49476 5.90951 8.80869 5.71175 8.09556V8.09699Z" fill="#EFEFEF"/>
</svg>
